<?xml version="1.0" encoding="UTF-8"?>
<svg id="Layer_1" xmlns="http://www.w3.org/2000/svg" xmlns:xlink="http://www.w3.org/1999/xlink" version="1.1" viewBox="0 0 512 512">
  <!-- Generator: Adobe Illustrator 29.2.1, SVG Export Plug-In . SVG Version: 2.1.0 Build 116)  -->
  <defs>
    <style>
      .st0 {
        fill: #0e0c0c;
      }
    </style>
  </defs>
  <path class="st0" d="M255,5C116.9,5,5,116.9,5,255s111.9,250,250,250,250-111.9,250-250S393.1,5,255,5ZM339.9,342v20.5h-35.1v-37.8l35.1-47.3v64.6ZM425.6,165.5l-5.1,28.4-.3,1.5h0s-1.5-.4-1.5-.4c-5.3-1.4-11-2-16.2-2s-10.6.6-15.8,1.9c-1.9.5-3.9,1-5.9,1.7h-.2c0,.1-.1.1-.1.1-17.1,4.9-31.2,16.1-39.8,31.6l-2,3.6v-.2c-6.4,11.1-34.3,55.1-34.7,55.5-4.2,5.3-18.6,23.2-24.9,30.9-10.1,12.3-29.8,29.9-41.8,35.5-10.4,4.8-19.4,8.5-29.4,10.4-7,1.5-14.1,2.3-21.3,2.3s-11.8-.5-17.6-1.6c-7.1-1.3-14.2-3.3-21.1-6-25.7-10.3-45.5-29.8-55.9-54.8-10.3-25-10.3-53,.2-79.1,5.4-13.4,12.9-25.1,22.3-34.8h0s0,0,0,0c12.8-11.8,28.8-20.2,46.3-24.3,4.4-1,8.9-1.8,13.4-2.2,4-.4,8-.6,12-.6,24.2,0,46.5,7.3,64.7,21.2l1.1.9-.8,1.1-17.3,23.9-.9,1.2-1.2-.9c-13.4-10.3-28.6-15.7-43.9-15.7s-10.6.6-15.8,1.9c-1.9.5-3.9,1-5.9,1.7h-.2c0,.1-.1.1-.1.1-12,3.5-22.8,10.1-31,19.3-8.3,9.2-13.9,20.6-16.3,33.2,0,.3-.1.7-.2,1.1h0c0,.1-.2,1.5-.2,1.5v.3s-.2,1.1-.2,1.1c-.1.9-.2,1.8-.3,2.7,0,.5,0,1.1-.1,1.6-.1,1.9-.2,3.7-.2,5.6s0,.3,0,.4h0c.2,39.2,29.8,68.7,68.9,68.7s37.5-6.2,58.2-24.7c14.2-12.6,30.4-34.2,41.5-50.2,6.9-9.9,12.6-18.9,16.2-24.7,1.1-1.8,2-3.7,2.8-5.8v-61.4h34.8v13.2c10.7-7.4,22.7-12.7,35.7-15.8,4.4-1,8.9-1.8,13.4-2.2,4-.4,8-.6,12-.6,6.9,0,13.8.6,20.4,1.8,1.1.2,3.3.6,3.4.7l1.4.3-.2,1.4Z"/>
</svg>