<?xml version="1.0" encoding="UTF-8"?>
<svg id="Layer_1" xmlns="http://www.w3.org/2000/svg" version="1.1" viewBox="0 0 512 512">
  <!-- Generator: Adobe Illustrator 29.2.1, SVG Export Plug-In . SVG Version: 2.1.0 Build 116)  -->
  <defs>
    <style>
      .st0 {
        fill: #0e0c0c;
      }

      .st1 {
        fill: #ff8c28;
      }

      .st2 {
        fill: #fff7ee;
      }
    </style>
  </defs>
  <path class="st0" d="M256,2.6h0c140,0,253.4,113.5,253.4,253.4h0c0,140-113.5,253.4-253.4,253.4h0C116,509.4,2.6,396,2.6,256h0C2.6,116,116,2.6,256,2.6Z"/>
  <g>
    <polygon class="st1" points="306.5 326.7 306.5 365 342.1 365 342.1 344.2 342.1 278.8 306.5 326.7"/>
    <path class="st2" d="M423.5,195.6l.3-1.6,5.2-28.8.3-1.4-1.4-.3c0,0-2.3-.5-3.4-.7-6.7-1.2-13.7-1.9-20.7-1.9s-8.2.2-12.2.6c-4.5.5-9.1,1.2-13.6,2.3-13.2,3.1-25.4,8.4-36.2,16v-13.3h-35.3v62.2c-.8,2.1-1.7,4.1-2.8,5.9-3.6,5.9-9.4,15-16.4,25-11.3,16.1-27.7,38-42.1,50.8-21,18.7-49.3,25-59,25-39.6,0-69.6-29.9-69.8-69.6h0c0-.2,0-.3,0-.5,0-1.9,0-3.8.2-5.7,0-.5,0-1.1.1-1.6,0-.9.2-1.8.3-2.7l.2-1.2v-.3s.3-1.4.3-1.4h0c0-.5.1-.9.2-1.2,2.4-12.7,8.1-24.3,16.5-33.6,8.4-9.3,19.2-16,31.4-19.5h.4c2-.8,4-1.4,6-1.8,5.3-1.3,10.7-1.9,16-1.9,15.5,0,30.9,5.5,44.5,16l1.2.9.9-1.2,17.5-24.2.8-1.2-1.1-.9c-18.4-14.1-41.1-21.5-65.6-21.5s-8.2.2-12.2.6c-4.5.5-9.1,1.2-13.6,2.3-17.7,4.1-34,12.6-46.9,24.6h0s0,0,0,0c-9.5,9.9-17.1,21.8-22.6,35.3-10.6,26.4-10.7,54.9-.2,80.2,10.5,25.4,30.7,45.1,56.7,55.6,7,2.8,14.1,4.9,21.4,6.1,5.9,1,11.9,1.6,17.8,1.6s14.5-.8,21.6-2.3c10.1-2,19.3-5.6,29.8-10.6,12.2-5.7,32.1-23.5,42.4-36,6.4-7.7,20.9-25.9,25.2-31.3.3-.4,28.6-45.1,35.1-56.3v.2s2.1-3.6,2.1-3.6c8.7-15.7,23-27,40.3-32h.4c2-.8,4-1.4,6-1.8,5.3-1.3,10.7-1.9,16-1.9s11.1.7,16.5,2.1l1.5.4h0Z"/>
  </g>
</svg>